<svg id="ic_block_user" xmlns="http://www.w3.org/2000/svg" width="24" height="24" viewBox="0 0 24 24">
  <g id="ic_bloquear_usuario">
    <rect id="Boundary" width="24" height="24" fill="none"/>
    <path id="Path_9470" data-name="Path 9470" d="M7.062,6.21h0A4.924,4.924,0,0,1,12,2a5,5,0,0,1,5,5v3H15V7A3,3,0,0,0,9,7ZM19.024,11H4.976A.976.976,0,0,0,4,11.976v9.048A.976.976,0,0,0,4.976,22H19.024A.976.976,0,0,0,20,21.024V11.976A.976.976,0,0,0,19.024,11m-4.9,6a2.249,2.249,0,0,1-1.37,1.37V20h-1.5V18.373A2.251,2.251,0,1,1,14.122,17M12,15.352a.9.9,0,1,0,.9.9.9.9,0,0,0-.9-.9Z" fill="#76bd22"/>
  </g>
</svg>
