<svg id="img_pdf-a" xmlns="http://www.w3.org/2000/svg" width="25.6" height="32" viewBox="0 0 25.6 32">
  <path id="Path_9489" data-name="Path 9489" d="M25.6,7.5,18.1,0H.96A.96.96,0,0,0,0,.96V22.671H25.6Z" fill="#f2f2f2"/>
  <path id="Path_9490" data-name="Path 9490" d="M22.622,6.293a1.21,1.21,0,0,0,1.21,1.21h6.293L22.622,0Z" transform="translate(-4.524)" fill="#d5d5d5"/>
  <path id="Path_9491" data-name="Path 9491" d="M.008,28.331v8.375a.96.96,0,0,0,.96.96H24.642a.96.96,0,0,0,.96-.96V28.331Z" transform="translate(-0.002 -5.666)" fill="#d40511"/>
  <path id="Path_9492" data-name="Path 9492" d="M7.917,22.027a1.694,1.694,0,0,1-1.1-.429,1.414,1.414,0,0,1-.56-1.366c.276-1.619,3.287-3.1,5.038-3.83a57.559,57.559,0,0,0,2.286-7.288c-1.02-2.186-1.379-3.729-1.064-4.6a1.232,1.232,0,0,1,.932-.818l.063-.013.062.006a1.361,1.361,0,0,1,.863.566,4.022,4.022,0,0,1,.315,3.094c-.076.4-.2.982-.366,1.675a39.871,39.871,0,0,0,3.314,5.569,10.364,10.364,0,0,1,2.463-.094c1.342.138,1.625.724,1.675,1.064a1.291,1.291,0,0,1-.914,1.279,2.9,2.9,0,0,1-3.42-1.216c-.05-.063-.1-.132-.151-.2a27.351,27.351,0,0,0-4.926,1.361c-.182.069-.359.138-.535.208-1.178,2.885-2.33,4.542-3.433,4.938A1.5,1.5,0,0,1,7.917,22.027Zm2.96-4.6c-2.5,1.127-3.742,2.242-3.854,2.942a.643.643,0,0,0,.3.649.852.852,0,0,0,.894.2c.875-.314,1.808-1.826,2.664-3.786m7.37-2.123a2.09,2.09,0,0,0,2.387.832c.3-.126.473-.34.454-.46s-.3-.34-1-.41A9.3,9.3,0,0,0,18.248,15.3Zm-4.132-5.127c-.385,1.48-.907,3.263-1.518,4.989-.107.3-.208.58-.315.857a29.728,29.728,0,0,1,4.586-1.291,41.5,41.5,0,0,1-2.753-4.554m-.567-5.7a.455.455,0,0,0-.3.309,5.272,5.272,0,0,0,.63,3.093q.076-.359.133-.662c.29-1.568.012-2.242-.183-2.5A.707.707,0,0,0,13.548,4.471Z" transform="translate(-1.248 -0.735)" fill="#d40511"/>
  <path id="Path_9493" data-name="Path 9493" d="M8.313,35.966v-4.8h1.65a2.437,2.437,0,0,1,1.441.37,1.368,1.368,0,0,1,.516,1.193v.146a1.368,1.368,0,0,1-.516,1.193,2.443,2.443,0,0,1-1.441.371H9.579v1.527Zm1.68-3.782H9.579V33.42h.414a.829.829,0,0,0,.48-.121.487.487,0,0,0,.174-.432v-.11a.516.516,0,0,0-.174-.454.835.835,0,0,0-.48-.12" transform="translate(-1.663 -6.233)" fill="#fff"/>
  <path id="Path_9494" data-name="Path 9494" d="M13.931,35.965v-4.8h1.717a2,2,0,0,1,1.512.56,2.282,2.282,0,0,1,.538,1.644v.392a2.32,2.32,0,0,1-.542,1.645,1.989,1.989,0,0,1-1.509.559Zm1.687-3.716H15.2v2.633h.422a.686.686,0,0,0,.607-.277,1.615,1.615,0,0,0,.2-.887v-.306a1.578,1.578,0,0,0-.193-.886.7.7,0,0,0-.614-.277" transform="translate(-2.786 -6.233)" fill="#fff"/>
  <path id="Path_9495" data-name="Path 9495" d="M19.931,35.965v-4.8h3.011v1.084H21.2v.938h1.542v1.048H21.2v1.73Z" transform="translate(-3.986 -6.233)" fill="#fff"/>
</svg>
