<svg id="ic_administrador" xmlns="http://www.w3.org/2000/svg" width="40" height="40" viewBox="0 0 40 40">
  <rect id="Boundary" width="40" height="40" fill="none"/>
  <path id="Path_9473" data-name="Path 9473" d="M31.621,26.495V22.96l-2.732-.547-.67-1.617,1.545-2.318-2.5-2.5-2.318,1.545-1.618-.67-.545-2.732H19.246L18.7,16.853l-1.618.67-2.318-1.545-2.5,2.5L13.809,20.8l-.67,1.618-2.732.545v3.535l2.732.547.67,1.618-1.545,2.318,2.5,2.5,2.318-1.547L18.7,32.6l.545,2.73h3.537l.545-2.73,1.618-.672,2.318,1.545,2.5-2.5L28.219,28.66l.67-1.618Zm-10.607,2.02A3.788,3.788,0,1,1,24.8,24.728a3.786,3.786,0,0,1-3.787,3.787M18.741,10.333V8.818l-1.657-.552a6.04,6.04,0,0,0-.807-1.948l.782-1.563L15.988,3.683l-1.563.782a6,6,0,0,0-1.948-.807L11.924,2H10.408L9.856,3.658a6,6,0,0,0-1.948.807L6.344,3.683,5.273,4.755l.782,1.563a6.04,6.04,0,0,0-.807,1.948l-1.657.552v1.515l1.657.553a6.04,6.04,0,0,0,.807,1.948L5.273,14.4l1.072,1.07,1.563-.782a6.044,6.044,0,0,0,1.948.808l.552,1.657h1.517l.552-1.657a6.044,6.044,0,0,0,1.948-.808l1.563.782,1.072-1.07-.782-1.563a6.04,6.04,0,0,0,.807-1.948Zm-7.575,2.273a3.03,3.03,0,1,1,3.03-3.03,3.03,3.03,0,0,1-3.03,3.03" transform="translate(2.394 1.333)" fill="#333" opacity="0.4"/>
</svg>
