<svg id="ic_empleado" xmlns="http://www.w3.org/2000/svg" width="40" height="40" viewBox="0 0 40 40">
  <rect id="Boundary" width="40" height="40" fill="none"/>
  <path id="Path_9471" data-name="Path 9471" d="M11.881,7a5,5,0,1,1,5,5,5,5,0,0,1-5-5m17.1,20.975L26.4,16.127A2.062,2.062,0,0,0,24.385,14.5h-4.17a3.333,3.333,0,0,1-6.667,0H9.38a2.065,2.065,0,0,0-2.018,1.627L4.786,27.975a4.7,4.7,0,0,0,3.59,5.585,4.764,4.764,0,0,0,1,.107h.008V22h15V33.667h.008a4.7,4.7,0,0,0,4.588-5.692m-6.263,7.358H11.048V23.667H22.715Zm-1.667-4.167H17.715v2.5h3.333Z" transform="translate(3.119 1.333)" fill="#333" opacity="0.4"/>
</svg>
